HIERARCHY
ROOT hip
{
  OFFSET -0.104254 88.5389 -14.5446
  CHANNELS 6 Xposition Yposition Zposition Zrotation Xrotation Yrotation
  JOINT abdomen
  {
    OFFSET 0 6.09653 0.699602
    CHANNELS 3 Zrotation Xrotation Yrotation
    JOINT chest
    {
      OFFSET 0 2.49857 -0.699602
      CHANNELS 3 Zrotation Xrotation Yrotation
      JOINT lCollar
      {
        OFFSET 1.49915 11.2936 -1.69903
        CHANNELS 3 Zrotation Xrotation Yrotation
        JOINT lShldr
        {
          OFFSET 4.89721 -0.299833 0.799545
          CHANNELS 3 Zrotation Xrotation Yrotation
          JOINT lForeArm
          {
            OFFSET 12.4216 -1.19922 0.931564
            CHANNELS 3 Zrotation Xrotation Yrotation
            JOINT lHand
            {
              OFFSET 9.86568 0.0998482 3.66582
              CHANNELS 3 Zrotation Xrotation Yrotation
              JOINT lPinky1
              {
                OFFSET 3.29812 0.0999421 -0.399772
                CHANNELS 3 Zrotation Xrotation Yrotation
                JOINT lPinky2
                {
                  OFFSET 0.899488 -0.0999427 0
                  CHANNELS 3 Zrotation Xrotation Yrotation
                  End Site
                  {
                    OFFSET 0.999427 -0.0999418 0
                  }
                }
              }
              JOINT lThumb1
              {
                OFFSET 0.399772 -0.399773 1.19932
                CHANNELS 3 Zrotation Xrotation Yrotation
                JOINT lThumb2
                {
                  OFFSET 0.99813 0 1.47145
                  CHANNELS 3 Zrotation Xrotation Yrotation
                  End Site
                  {
                    OFFSET 0.97784 -0.27884 0.829828
                  }
                }
              }
              JOINT lMid1
              {
                OFFSET 2.99829 0.499714 1.09937
                CHANNELS 3 Zrotation Xrotation Yrotation
                JOINT lMid2
                {
                  OFFSET 1.45827 -0.0999388 0.600149
                  CHANNELS 3 Zrotation Xrotation Yrotation
                  End Site
                  {
                    OFFSET 1.04031 -0.0999473 0.399282
                  }
                }
              }
              JOINT lRing1
              {
                OFFSET 3.39806 0.399773 0.299829
                CHANNELS 3 Zrotation Xrotation Yrotation
                JOINT lRing2
                {
                  OFFSET 1.29926 -0.199886 0.399772
                  CHANNELS 3 Zrotation Xrotation Yrotation
                  End Site
                  {
                    OFFSET 0.899489 -0.0999425 0.199886
                  }
                }
              }
              JOINT lIndex1
              {
                OFFSET 2.69846 0.399775 2.09881
                CHANNELS 3 Zrotation Xrotation Yrotation
                JOINT lIndex2
                {
                  OFFSET 1.33823 -0.200884 0.6843
                  CHANNELS 3 Zrotation Xrotation Yrotation
                  End Site
                  {
                    OFFSET 0.760567 0.00099574 0.415074
                  }
                }
              }
            }
          }
        }
      }
      JOINT rCollar
      {
        OFFSET -1.49915 11.2936 -1.69903
        CHANNELS 3 Zrotation Xrotation Yrotation
        JOINT rShldr
        {
          OFFSET -4.89721 -0.299829 0.799545
          CHANNELS 3 Zrotation Xrotation Yrotation
          JOINT rForeArm
          {
            OFFSET -12.4216 -1.19922 0.931564
            CHANNELS 3 Zrotation Xrotation Yrotation
            JOINT rHand
            {
              OFFSET -9.86568 0.0998477 3.66582
              CHANNELS 3 Zrotation Xrotation Yrotation
              JOINT rThumb1
              {
                OFFSET -0.399773 -0.39977 1.19932
                CHANNELS 3 Zrotation Xrotation Yrotation
                JOINT rThumb2
                {
                  OFFSET -0.998132 0 1.47145
                  CHANNELS 3 Zrotation Xrotation Yrotation
                  End Site
                  {
                    OFFSET -0.977841 -0.278837 0.829828
                  }
                }
              }
              JOINT rIndex1
              {
                OFFSET -2.69847 0.399775 2.09881
                CHANNELS 3 Zrotation Xrotation Yrotation
                JOINT rIndex2
                {
                  OFFSET -1.33823 -0.200883 0.6843
                  CHANNELS 3 Zrotation Xrotation Yrotation
                  End Site
                  {
                    OFFSET -0.760569 0.00099747 0.415074
                  }
                }
              }
              JOINT rMid1
              {
                OFFSET -2.99829 0.499717 1.09937
                CHANNELS 3 Zrotation Xrotation Yrotation
                JOINT rMid2
                {
                  OFFSET -1.45827 -0.0999391 0.600149
                  CHANNELS 3 Zrotation Xrotation Yrotation
                  End Site
                  {
                    OFFSET -1.0403 -0.0999474 0.399282
                  }
                }
              }
              JOINT rRing1
              {
                OFFSET -3.39807 0.399775 0.299829
                CHANNELS 3 Zrotation Xrotation Yrotation
                JOINT rRing2
                {
                  OFFSET -1.29926 -0.199888 0.399772
                  CHANNELS 3 Zrotation Xrotation Yrotation
                  End Site
                  {
                    OFFSET -0.899487 -0.0999402 0.199886
                  }
                }
              }
              JOINT rPinky1
              {
                OFFSET -3.29812 0.0999423 -0.399772
                CHANNELS 3 Zrotation Xrotation Yrotation
                JOINT rPinky2
                {
                  OFFSET -0.899492 -0.0999405 0
                  CHANNELS 3 Zrotation Xrotation Yrotation
                  End Site
                  {
                    OFFSET -0.999429 -0.0999421 0
                  }
                }
              }
            }
          }
        }
      }
      JOINT neck
      {
        OFFSET 0 12.4929 -0.499715
        CHANNELS 3 Zrotation Xrotation Yrotation
        JOINT head
        {
          OFFSET 0 3.59795 0.299829
          CHANNELS 3 Zrotation Xrotation Yrotation
          JOINT leftEye
          {
            OFFSET 1.19932 3.69789 3.19818
            CHANNELS 3 Zrotation Xrotation Yrotation
            End Site
            {
              OFFSET 0 0 0
            }
          }
          JOINT rightEye
          {
            OFFSET -1.19932 3.69789 3.19818
            CHANNELS 3 Zrotation Xrotation Yrotation
            End Site
            {
              OFFSET 0 0 0
            }
          }
        }
      }
    }
  }
  JOINT rButtock
  {
    OFFSET -4.19761 -0.599656 -0.299829
    CHANNELS 3 Zrotation Xrotation Yrotation
    JOINT rThigh
    {
      OFFSET 0 -1.49915 0
      CHANNELS 3 Zrotation Xrotation Yrotation
      JOINT rShin
      {
        OFFSET 0.699602 -17.6899 -1.09938
        CHANNELS 3 Zrotation Xrotation Yrotation
        JOINT rFoot
        {
          OFFSET -0.699602 -18.0897 -0.699602
          CHANNELS 3 Zrotation Xrotation Yrotation
          End Site
          {
            OFFSET 0 -2.09881 5.59681
          }
        }
      }
    }
  }
  JOINT lButtock
  {
    OFFSET 4.19761 -0.599656 -0.299829
    CHANNELS 3 Zrotation Xrotation Yrotation
    JOINT lThigh
    {
      OFFSET 0 -1.49914 0
      CHANNELS 3 Zrotation Xrotation Yrotation
      JOINT lShin
      {
        OFFSET -0.699602 -17.6899 -1.09937
        CHANNELS 3 Zrotation Xrotation Yrotation
        JOINT lFoot
        {
          OFFSET 0.699602 -18.0897 -0.699602
          CHANNELS 3 Zrotation Xrotation Yrotation
          End Site
          {
            OFFSET 0 -2.0988 5.59681
          }
        }
      }
    }
  }
}
MOTION
Frames:	8
Frame Time:	0.0333333
-0.705018 88.5849 -16.7673 -1.94405 -12.6458 -2.75663 -0.00975517 -0.00975351 -0.00975351 -1.34173 10.3998 0.3655 -3.63434 1.30447 -19.206 -68.6583 16.496 7.17238 52.4343 2.52567 -68.753 -10.1911 2.83988 8.67429 -1.89049 1.08216 -28.0686 -0.629967 -0.0099583 0.0010089 -1.87818 1.06148 -28.0917 9.40787 -7.94586 0.599069 -1.91292 1.08254 -28.0857 0.181555 0.424301 -1.45108 -1.90885 1.07494 -28.0899 -2.42857 -0.502363 -4.43241 -1.90193 1.09684 -28.0878 -8.62302 -0.0231909 1.79819 6.7322 0.861532 9.02392 66.1966 22.7511 -2.36326 -50.2001 8.06642 64.8545 14.919 5.57364 0.00531882 1.8765 1.0053 28.0257 -9.40282 -7.91099 -0.69994 1.84105 1.042 28.023 8.61537 -0.00190224 -1.79828 1.84571 1.02832 28.013 -0.243675 0.394432 1.44876 1.84463 1.02332 28.0095 2.4303 -0.497593 4.4329 1.83996 1.02698 28.0275 0.629425 -0.00953168 -0.000952463 1.28787 -10.4185 -0.140961 -1.10125 -11.7559 4.70001 0 0 0 0 0 0 -0.00975517 -0.00969887 -0.00983547 -10.2068 -66.1662 -13.0798 9.81069 69.8931 -1.03 1.45749 10.3013 -0.585464 -0.00975517 -0.00983547 -0.00969887 2.87703 -67.1299 -0.127891 -11.2477 73.2988 4.6988 0.208313 9.3168 0.335004 
-0.624066 88.5985 -16.677 -2.41277 -12.2942 -2.67823 -0.00975517 -0.00975351 -0.00975351 -1.67375 10.6633 0.648907 -3.66755 1.30423 -19.0273 -68.4199 16.7969 7.28749 50.7925 1.3601 -69.4572 -10.7881 2.92248 9.48613 -1.89049 1.08216 -28.0686 -0.629967 -0.0099583 0.0010089 -1.87818 1.06148 -28.0917 9.40787 -7.94586 0.599069 -1.91292 1.08254 -28.0857 0.181555 0.424301 -1.45108 -1.90885 1.07494 -28.0899 -2.42857 -0.502363 -4.43241 -1.90193 1.09684 -28.0878 -8.62302 -0.0231909 1.79819 6.39342 0.789412 8.78247 66.3094 22.8603 -2.26817 -49.9146 8.20447 64.7074 14.0115 5.24446 0.0966162 1.8765 1.0053 28.0257 -9.40282 -7.91099 -0.69994 1.84105 1.042 28.023 8.61537 -0.00190224 -1.79828 1.84571 1.02832 28.013 -0.243675 0.394432 1.44876 1.84463 1.02332 28.0095 2.4303 -0.497593 4.4329 1.83996 1.02698 28.0275 0.629425 -0.00953168 -0.000952463 1.55507 -10.6911 -0.363154 -1.57181 -12.1431 6.10137 0 0 0 0 0 0 -0.00975517 -0.00969887 -0.00983547 -10.811 -66.2618 -14.355 9.84553 69.9072 -0.759346 1.29737 10.1914 -0.559366 -0.00975517 -0.00983547 -0.00969887 3.12537 -67.5846 -0.22974 -11.4096 73.5721 4.76283 0.248777 9.15236 0.324149 
-0.524677 88.6193 -16.5513 -2.87172 -11.8451 -2.59045 -0.00975517 -0.00975351 -0.00975351 -2.21069 10.7117 1.07883 -3.73992 1.33343 -19.2492 -68.2152 16.9773 7.60144 49.4675 0.149848 -70.2844 -11.5489 3.05078 10.2198 -1.89049 1.08216 -28.0686 -0.629967 -0.0099583 0.0010089 -1.87818 1.06148 -28.0917 9.40787 -7.94586 0.599069 -1.91292 1.08254 -28.0857 0.181555 0.424301 -1.45108 -1.90885 1.07494 -28.0899 -2.42857 -0.502363 -4.43241 -1.90193 1.09684 -28.0878 -8.62302 -0.0231909 1.79819 6.07314 0.747349 8.91766 66.528 22.494 -2.58635 -49.3851 8.36764 64.4927 13.1131 4.95272 0.436529 1.8765 1.0053 28.0257 -9.40282 -7.91099 -0.69994 1.84105 1.042 28.023 8.61537 -0.00190224 -1.79828 1.84571 1.02832 28.013 -0.243675 0.394432 1.44876 1.84463 1.02332 28.0095 2.4303 -0.497593 4.4329 1.83997 1.02698 28.0275 0.629425 -0.00953168 -0.000952463 2.02416 -10.7577 -0.693712 -2.13566 -12.6119 7.47797 0 0 0 0 0 0 -0.00975517 -0.00969887 -0.00983547 -11.6294 -66.4366 -15.8463 9.91057 69.9885 -0.464676 1.18548 9.99361 -0.535378 -0.00975517 -0.00983547 -0.00969887 3.23432 -68.1176 -0.448916 -11.5865 73.8746 4.89956 0.356508 8.94897 0.304155 
-0.409784 88.6417 -16.414 -3.31114 -11.2982 -2.48318 -0.00975517 -0.00975351 -0.00975351 -2.73781 10.7016 1.54741 -3.77357 1.35181 -19.4471 -68.11 17.2668 7.77158 48.4792 -1.01258 -71.1446 -12.2799 3.14752 11.0618 -1.89049 1.08216 -28.0686 -0.629967 -0.0099583 0.0010089 -1.87818 1.06148 -28.0917 9.40787 -7.94586 0.599069 -1.91292 1.08254 -28.0857 0.181555 0.424301 -1.45108 -1.90885 1.07494 -28.0899 -2.42857 -0.502363 -4.43241 -1.90193 1.09684 -28.0878 -8.62302 -0.0231909 1.79819 5.50542 0.689575 9.45295 66.9529 21.7959 -3.26098 -48.1027 8.29364 64.2892 12.5232 4.72506 0.414761 1.8765 1.0053 28.0257 -9.40282 -7.91099 -0.69994 1.84105 1.042 28.023 8.61537 -0.00190224 -1.79828 1.84571 1.02832 28.013 -0.243675 0.394432 1.44876 1.84463 1.02332 28.0095 2.43029 -0.497593 4.4329 1.83997 1.02698 28.0275 0.629425 -0.00953168 -0.000952463 2.47718 -10.7749 -1.07553 -2.75469 -13.162 8.8272 0 0 0 0 0 0 -0.00975517 -0.00969887 -0.00983547 -12.6337 -66.6713 -17.5353 9.98486 70.0793 -0.125057 1.03309 9.79585 -0.506752 -0.00975517 -0.00983547 -0.00969887 3.1782 -68.7487 -0.852027 -11.7657 74.1771 5.07255 0.423989 8.72644 0.2885 
-0.287036 88.6591 -16.285 -3.74079 -10.7025 -2.36557 -0.00975517 -0.00975351 -0.00975351 -3.10875 10.8088 1.97736 -3.83896 1.36051 -19.2866 -67.9035 17.8692 7.60629 47.5276 -2.12661 -72.0268 -12.8464 3.17559 12.0181 -1.89049 1.08216 -28.0686 -0.629967 -0.0099583 0.0010089 -1.87818 1.06148 -28.0917 9.40787 -7.94586 0.599069 -1.91292 1.08254 -28.0857 0.181555 0.424301 -1.45108 -1.90885 1.07494 -28.0899 -2.42857 -0.502363 -4.43241 -1.90193 1.09684 -28.0878 -8.62302 -0.0231909 1.79819 4.43744 0.54363 10.036 67.6904 21.0975 -3.81682 -46.6501 8.13755 64.11 12.2289 4.5831 0.187794 1.8765 1.0053 28.0257 -9.40282 -7.91099 -0.69994 1.84105 1.042 28.023 8.61536 -0.00190224 -1.79828 1.84571 1.02832 28.013 -0.243675 0.394432 1.44876 1.84463 1.02332 28.0095 2.43029 -0.497593 4.4329 1.83997 1.02698 28.0275 0.629425 -0.00953168 -0.000952463 2.76712 -10.8994 -1.43346 -3.39958 -13.8692 10.2108 0 0 0 0 0 0 -0.00975517 -0.00969887 -0.00983547 -13.7762 -66.9561 -19.362 10.0595 70.1696 0.216977 0.889397 9.61804 -0.480646 -0.00975517 -0.00983547 -0.00969887 3.02099 -69.429 -1.36023 -11.9248 74.4512 5.29743 0.441883 8.5428 0.280054 
-0.163056 88.6792 -16.1434 -4.1509 -10.0189 -2.25829 -0.00975517 -0.00975351 -0.00975351 -3.51873 10.8378 2.39705 -3.9248 1.36357 -18.9172 -67.5496 18.6483 7.31346 46.3073 -3.15154 -72.927 -13.4508 3.20952 12.9308 -1.89049 1.08216 -28.0686 -0.629967 -0.0099583 0.0010089 -1.87818 1.06148 -28.0917 9.40787 -7.94586 0.599069 -1.91292 1.08254 -28.0857 0.181555 0.424301 -1.45108 -1.90885 1.07494 -28.0899 -2.42857 -0.502363 -4.43241 -1.90193 1.09684 -28.0878 -8.62302 -0.0231909 1.79819 3.25885 0.370962 10.706 68.6138 20.3476 -4.31019 -45.6036 8.18297 63.8566 11.7581 4.4114 0.236361 1.8765 1.0053 28.0257 -9.40282 -7.91099 -0.69994 1.84105 1.042 28.023 8.61536 -0.00190224 -1.79828 1.84571 1.02832 28.013 -0.243675 0.394432 1.44876 1.84463 1.02332 28.0095 2.43029 -0.497593 4.4329 1.83997 1.02699 28.0275 0.629425 -0.00953168 -0.000952463 3.10618 -10.9746 -1.78919 -4.11176 -14.6481 11.5064 0 0 0 0 0 0 -0.00975517 -0.00969887 -0.00983547 -15.0192 -67.2911 -21.291 10.1392 70.2603 0.601057 0.726612 9.43977 -0.45266 -0.00975517 -0.00983547 -0.00969887 2.8031 -70.1973 -1.92719 -12.0975 74.7341 5.52008 0.489712 8.34014 0.267674 
-0.0425973 88.702 -15.9957 -4.54148 -9.27678 -2.1217 -0.00975517 -0.00975351 -0.00975351 -4.02636 10.7887 2.75881 -3.99353 1.34715 -18.2626 -67.018 19.635 6.86952 44.9351 -3.91907 -73.7105 -13.8977 3.23036 13.5915 -1.89048 1.08216 -28.0686 -0.629967 -0.0099583 0.0010089 -1.87818 1.06148 -28.0917 9.40787 -7.94586 0.599069 -1.91292 1.08254 -28.0857 0.181555 0.424301 -1.45108 -1.90885 1.07494 -28.0899 -2.42857 -0.502363 -4.43241 -1.90193 1.09684 -28.0878 -8.62302 -0.0231909 1.79819 2.29314 0.231871 11.6273 69.5968 19.4288 -4.77324 -44.9046 8.45839 63.4836 10.8464 4.09869 0.505541 1.8765 1.0053 28.0257 -9.40282 -7.91099 -0.69994 1.84105 1.042 28.023 8.61536 -0.00190224 -1.79828 1.84571 1.02832 28.013 -0.243675 0.394432 1.44876 1.84463 1.02332 28.0095 2.43029 -0.497593 4.4329 1.83998 1.02699 28.0275 0.629425 -0.00953168 -0.000952463 3.56368 -10.9516 -2.05286 -4.9409 -15.4367 12.5409 0 0 0 0 0 0 -0.00975517 -0.00969887 -0.00983547 -16.3337 -67.6764 -23.2605 10.2196 70.361 0.947975 0.584193 9.25173 -0.427189 -0.00975517 -0.00983547 -0.00969887 2.5216 -71.0047 -2.52066 -12.2601 74.9979 5.76137 0.52726 8.1471 0.256918 
0.0662649 88.7198 -15.8532 -4.9223 -8.5932 -1.98431 -0.00975517 -0.00975351 -0.00975351 -4.57307 10.7103 3.06145 -4.10253 1.34574 -17.7249 -66.3168 20.4765 6.56746 43.2362 -4.6609 -74.5927 -14.4197 3.24179 14.4077 -1.89048 1.08216 -28.0686 -0.629967 -0.0099583 0.0010089 -1.87818 1.06148 -28.0917 9.40787 -7.94586 0.599069 -1.91292 1.08254 -28.0857 0.181555 0.424301 -1.45108 -1.90885 1.07494 -28.0899 -2.42857 -0.502363 -4.43241 -1.90193 1.09684 -28.0878 -8.62302 -0.0231909 1.79819 1.82107 0.149801 11.8029 70.0738 19.218 -4.71504 -44.4775 8.8844 63.0375 9.85365 3.7651 0.907779 1.8765 1.0053 28.0257 -9.40282 -7.91099 -0.69994 1.84105 1.042 28.023 8.61535 -0.00190224 -1.79828 1.84571 1.02832 28.013 -0.243675 0.394432 1.44876 1.84463 1.02332 28.0095 2.43028 -0.497593 4.4329 1.83998 1.02699 28.0275 0.629425 -0.00953168 -0.000952463 4.05646 -10.9089 -2.26717 -5.82209 -16.1894 13.2916 0 0 0 0 0 0 -0.00975517 -0.00969887 -0.00983547 -17.6105 -68.0139 -25.1841 10.306 70.4812 1.26379 0.392661 9.0543 -0.396011 -0.00975517 -0.00983547 -0.00969887 2.26213 -71.7631 -3.08854 -12.4499 75.2799 5.96786 0.545995 7.94434 0.247992 
